<?xml version="1.0" encoding="UTF-8" standalone="no"?>
<svg
   xmlns:dc="http://purl.org/dc/elements/1.1/"
   xmlns:cc="http://creativecommons.org/ns#"
   xmlns:rdf="http://www.w3.org/1999/02/22-rdf-syntax-ns#"
   xmlns:svg="http://www.w3.org/2000/svg"
   xmlns="http://www.w3.org/2000/svg"
   xmlns:sodipodi="http://sodipodi.sourceforge.net/DTD/sodipodi-0.dtd"
   xmlns:inkscape="http://www.inkscape.org/namespaces/inkscape"
   viewBox="0 0 512 512"
   id="svg2"
   version="1.1"
   inkscape:version="0.91 r13725"
   sodipodi:docname="night-sky.svg">
  <metadata
     id="metadata12">
    <rdf:RDF>
      <cc:Work
         rdf:about="">
        <dc:format>image/svg+xml</dc:format>
        <dc:type
           rdf:resource="http://purl.org/dc/dcmitype/StillImage" />
      </cc:Work>
    </rdf:RDF>
  </metadata>
  <defs
     id="defs10" />
  <sodipodi:namedview
     pagecolor="#ffffff"
     bordercolor="#666666"
     borderopacity="1"
     objecttolerance="10"
     gridtolerance="10"
     guidetolerance="10"
     inkscape:pageopacity="0"
     inkscape:pageshadow="2"
     inkscape:window-width="1366"
     inkscape:window-height="715"
     id="namedview8"
     showgrid="false"
     inkscape:object-paths="true"
     inkscape:snap-intersection-paths="true"
     inkscape:object-nodes="true"
     inkscape:snap-smooth-nodes="true"
     inkscape:snap-midpoints="true"
     inkscape:zoom="0.921875"
     inkscape:cx="257.00323"
     inkscape:cy="232.26465"
     inkscape:window-x="-8"
     inkscape:window-y="-8"
     inkscape:window-maximized="1"
     inkscape:current-layer="svg2" />
  <circle
     stroke-width="16"
     stroke="#000"
     fill="#000"
     r="240"
     cy="256"
     cx="256"
     id="circle4" />
  <path
     d="M 256,16.438002 C 123.68,16.438002 16.217996,123.898 16.217996,256.218 16.217996,388.538 123.681,496 256,496 388.32,496 495.782,388.54 495.782,256.22 495.782,123.9 388.319,16.437002 256.001,16.437002 Z m 0,17.906 c 122.653,0 221.906,99.222998 221.906,221.875998 0,30.738 -6.26,59.99 -17.533,86.594 l -42.343,-34.72 c -49.613,13.98 -110.337,9.033 -138.906,-60.874 l -41.97,152.938 c -8.837,-45.53 -23.35,-81.28 -47.905,-115.22 -19.71,13.855 -32.352,32.63 -39.72,50.97 L 91.127,237.843 c -17.85,27.32 -33.77,56.565 -45.032,90.47 -7.744,-22.6 -11.968004,-46.852 -11.968004,-72.094 0,-26.013 4.484004,-50.973 12.687004,-74.156 2.752,6.608 9.27,11.25 16.875,11.25 10.093,0 18.28,-8.157 18.28,-18.25 0,-10.093 -8.187,-18.28 -18.28,-18.28 -2.385,0 -4.66,0.48 -6.75,1.31 27.537,-55.83 77.83,-98.367998 138.844,-115.499998 -0.558,1.938 -0.844,3.98 -0.844,6.095 0,12.146 9.823,22 21.97,22 12.144,0 22,-9.854 22,-22 0,-4.99 -1.67,-9.59 -4.47,-13.28 7.092,-0.683 14.29,-1.064 21.563,-1.064 z m 18.75,27.657 c -6.444,0 -11.657,5.213 -11.657,11.657 0,6.443 5.213,11.687 11.656,11.687 6.444,0 11.688,-5.243 11.688,-11.686 0,-6.444 -5.244,-11.656 -11.688,-11.656 z m -74.533,29.032 c -6.02,0.06 -12.132,0.868 -18.218,2.5 C 143.054,103.967 119.939,143.993 130.374,182.938 c 10.436,38.946 50.463,62.06 89.407,51.625 21.712,-5.818 38.48,-20.85 47.28,-39.75 -6.835,7.36 -15.737,12.958 -26.155,15.75 -29.504,7.905 -59.846,-9.59 -67.75,-39.094 -7.907,-29.504 9.62,-59.813 39.124,-67.72 10.41,-2.788 20.906,-2.417 30.5,0.533 C 230.5,95.684002 215.664,90.877002 200.217,91.032002 Z m 155.282,0.81 c -9.408,0 -17.03,7.623998 -17.03,17.031998 0,9.41 7.622,17.032 17.03,17.032 9.41,0 17.032,-7.623 17.032,-17.03 0,-9.41 -7.623,-17.032998 -17.03,-17.032998 z M 106.562,119.219 c -6.443,0 -11.656,5.244 -11.656,11.688 0,6.443 5.212,11.656 11.655,11.656 6.443,0 11.656,-5.213 11.656,-11.656 0,-6.444 -5.212,-11.688 -11.655,-11.688 z m 275.688,40.813 -0.625,29.843 -28.22,9.812 28.22,9.813 0.625,29.843 18.03,-23.78 28.563,8.625 -17.03,-24.5 17.03,-24.53 -28.562,8.655 -18.03,-23.78 z m -72.094,11.593 c -6.445,0 -11.658,5.212 -11.658,11.656 0,6.442 5.213,11.686 11.657,11.686 6.442,0 11.686,-5.244 11.686,-11.687 0,-6.445 -5.244,-11.657 -11.687,-11.657 z m 139,74.75 c -6.445,0 -11.658,5.244 -11.658,11.687 0,6.443 5.213,11.656 11.657,11.656 6.442,0 11.686,-5.213 11.686,-11.656 0,-6.443 -5.244,-11.688 -11.687,-11.688 z m -127.314,3.5 c -6.443,0 -11.656,5.244 -11.656,11.687 0,6.443 5.213,11.656 11.656,11.656 6.444,0 11.656,-5.213 11.656,-11.656 0,-6.443 -5.212,-11.688 -11.656,-11.688 z"
     id="path6"
     inkscape:connector-curvature="0"
     style="fill:#ffffff" />
</svg>
