<?xml version="1.0" encoding="UTF-8" standalone="no"?>
<svg
   xmlns:dc="http://purl.org/dc/elements/1.1/"
   xmlns:cc="http://creativecommons.org/ns#"
   xmlns:rdf="http://www.w3.org/1999/02/22-rdf-syntax-ns#"
   xmlns:svg="http://www.w3.org/2000/svg"
   xmlns="http://www.w3.org/2000/svg"
   xmlns:sodipodi="http://sodipodi.sourceforge.net/DTD/sodipodi-0.dtd"
   xmlns:inkscape="http://www.inkscape.org/namespaces/inkscape"
   viewBox="0 0 512 512"
   id="svg2"
   version="1.1"
   inkscape:version="0.91 r13725"
   sodipodi:docname="sunrise.svg">
  <metadata
     id="metadata12">
    <rdf:RDF>
      <cc:Work
         rdf:about="">
        <dc:format>image/svg+xml</dc:format>
        <dc:type
           rdf:resource="http://purl.org/dc/dcmitype/StillImage" />
      </cc:Work>
    </rdf:RDF>
  </metadata>
  <defs
     id="defs10" />
  <sodipodi:namedview
     pagecolor="#ffffff"
     bordercolor="#666666"
     borderopacity="1"
     objecttolerance="10"
     gridtolerance="10"
     guidetolerance="10"
     inkscape:pageopacity="0"
     inkscape:pageshadow="2"
     inkscape:window-width="1366"
     inkscape:window-height="715"
     id="namedview8"
     showgrid="false"
     inkscape:object-paths="true"
     inkscape:snap-intersection-paths="true"
     inkscape:object-nodes="true"
     inkscape:snap-midpoints="true"
     inkscape:snap-smooth-nodes="true"
     inkscape:zoom="0.4609375"
     inkscape:cx="256"
     inkscape:cy="256"
     inkscape:window-x="-8"
     inkscape:window-y="-8"
     inkscape:window-maximized="1"
     inkscape:current-layer="svg2" />
  <circle
     stroke-width="16"
     stroke="#000"
     fill="#000"
     r="240"
     cy="256"
     cx="256"
     id="circle4" />
  <path
     d="m 256.22,16.219 c -132.32,0 -239.78,107.46 -239.78,239.78 0,132.32 107.46,239.783 239.78,239.783 C 388.54,495.782 496,388.32 496,256 496,123.68 388.54,16.22 256.22,16.22 Z m 33.5,20.406 c 26.563,4.015 51.57,12.708 74.156,25.25 l -58.124,147.124 c -14.573,-7.215 -30.96,-11.344 -48.312,-11.53 L 289.72,36.625 Z m -67.72,0.094 23.97,161.22 c -17.2,1.56 -33.28,6.986 -47.313,15.436 l -51,-151 c 22.616,-12.698 47.696,-21.54 74.344,-25.656 z m 193.25,64.5 c 17.683,18.164 32.28,39.32 42.94,62.688 l -107.658,85.468 c -8.9,-14.076 -20.863,-26.014 -34.968,-34.875 L 415.25,101.22 Z m -319.092,1.063 93.187,117.373 c -13.318,9.978 -24.317,22.88 -32.063,37.75 L 53.345,165.969 c 10.527,-23.725 25.082,-45.226 42.813,-63.688 z m 378.75,115.906 c 2.105,12.286 3.218,24.92 3.218,37.81 0,11.49 -0.882,22.768 -2.56,33.783 L 367.69,305.843 c -0.463,-17.028 -4.757,-33.097 -12,-47.375 l 119.22,-40.28 z m -437.813,2.874 115.844,45.75 c -4.918,12.077 -7.81,25.224 -8.188,39 L 36.907,289.782 c -1.678,-11.016 -2.562,-22.295 -2.562,-33.783 0,-11.89 0.954,-23.554 2.75,-34.936 z m 130.563,89.53 177.125,0 119.062,23.909 c -31.674,83.843 -112.62,143.376 -207.625,143.376 -95.018,0 -175.968,-59.548 -207.625,-143.406 l 119.063,-23.875 z"
     id="path6"
     inkscape:connector-curvature="0"
     style="fill:#ffffff" />
</svg>
